<svg width="126" height="126" viewBox="0 0 126 126" fill="none" xmlns="http://www.w3.org/2000/svg">
<path d="M102.161 11.3401C105.538 21.3697 108.713 30.9457 111.938 40.4713C112.694 42.6889 113.198 44.9569 114.156 47.0737C115.164 49.2409 114.811 51.1561 114.005 53.1217C111.031 60.5305 108.007 67.9393 104.983 75.3985C104.63 76.2553 104.378 77.1625 104.026 78.0193C102.967 80.5897 101.707 82.9585 99.6408 85.0249C91.4256 92.9881 83.3616 101.102 75.348 109.267C71.7696 112.896 68.5944 116.878 64.5624 120.053C64.1088 120.406 63.8064 120.96 62.7984 121.061C61.236 119.498 59.472 117.785 57.708 116.071C55.2888 113.702 53.928 111.989 51.3072 109.771C50.0976 108.763 48.5856 106.798 47.4264 105.739C41.7312 100.548 36.792 94.7521 31.0968 89.6113C28.7784 87.5449 26.6616 85.0753 24.5448 82.7569C24.1416 82.3537 23.7384 81.8497 23.5368 81.3457C21.1176 75.2977 18.7992 69.2497 16.38 63.2521C14.868 59.4721 13.104 55.7929 11.8944 51.9121C11.3904 50.2489 11.3904 48.7873 11.8944 47.1745C15.876 35.3305 19.7568 23.4361 23.7384 11.5417C25.6536 12.0961 25.6536 11.9953 27.3168 12.3481C29.232 12.7009 33.3648 13.0537 35.3304 12.8017C37.044 12.6001 37.6992 12.4993 39.564 12.0961C46.2672 10.5841 53.0712 8.16486 59.4216 5.74566C62.0928 4.73766 64.6128 4.88886 67.1832 5.99766C73.584 8.71926 80.2872 10.6345 87.0912 11.9449C92.0304 12.8521 97.02 13.2049 102.161 11.3401Z" fill="#8DE9C9"/>
<path d="M33.4151 70.7617C33.0623 70.7617 32.7095 70.9129 32.4071 70.8121C32.0039 70.6609 31.6007 70.3585 31.1975 70.1065C31.0463 65.7721 32.1551 61.6897 33.0623 57.6073C34.5239 51.1057 34.4735 44.6545 33.8687 38.1025C33.3647 32.5081 32.5079 26.9137 32.7599 20.8153C36.2879 22.7305 38.9087 25.2001 41.6807 27.4177C42.1847 27.8209 42.9911 28.0729 42.6383 28.9801C40.8239 29.9881 39.8663 28.3753 38.6063 27.6697C37.4975 27.0145 36.6911 25.9561 35.0783 25.0993C35.5319 31.6513 36.1367 37.8505 36.7415 44.6545C40.1687 42.4369 43.0415 40.0681 45.9647 37.9009C47.1743 37.0441 48.1823 35.6329 49.9967 36.4393C51.1055 38.2033 49.5431 38.9089 48.5351 39.7153C46.0655 41.6809 43.5455 43.5457 41.0255 45.4105C39.3119 46.6705 37.7999 48.0313 36.6407 49.8457C35.4815 55.5913 34.9775 61.4377 33.3647 67.0825C33.1127 67.4353 32.8103 67.7377 32.5583 68.0905C32.7599 67.8889 32.9111 67.7377 33.1631 67.5361C36.1871 65.5705 39.8663 64.8649 43.1423 62.6977C41.9831 59.2201 40.6727 55.9441 38.2535 53.1721C37.3463 52.1137 35.6327 51.1561 37.1951 49.3921C42.0839 52.1641 47.1743 54.3817 53.0711 55.1881C52.5167 49.0897 50.3999 43.1929 50.5511 37.0441C48.7367 35.4313 46.6199 34.2217 44.8055 32.6089C43.7471 31.6513 42.2855 30.8449 42.6383 29.0305C44.4527 28.7785 45.4607 30.2401 46.3679 31.1977C49.7447 34.6753 53.6255 35.7841 58.4135 35.4313C63.1007 35.0785 67.8383 35.2801 72.5255 35.3809C74.3903 35.4313 75.8519 34.9777 77.3135 33.7177C82.1015 29.7361 87.0407 25.9057 91.9295 22.0753C92.4839 21.6721 92.9879 21.1177 94.1471 21.2185C94.4999 23.1337 94.1975 25.0489 94.0463 26.9641C93.6935 31.6513 93.5927 36.3889 92.7863 40.9753C91.5263 48.2833 93.7439 55.1377 94.6511 62.1937C95.0039 64.7137 95.9111 67.1833 95.7599 69.9049C92.6351 72.4249 89.2583 74.6425 85.7303 76.4065C81.2447 78.6241 78.8255 81.9001 77.8175 86.6881C77.0111 90.3169 75.5999 93.8449 74.4407 97.3729C73.8863 99.0865 73.0799 100.598 70.9127 100.548C69.6527 96.7177 67.7879 99.6913 65.8727 99.9433C67.6367 101.808 69.4511 99.1873 70.9631 100.498C68.5439 105.386 61.7399 106.243 58.3631 103.32C52.9703 98.6833 52.7687 98.8849 50.7527 92.1817C49.8959 89.2585 48.9887 86.3857 48.1823 83.4625C47.5775 81.1945 46.4687 79.5817 44.3015 78.3721C40.9247 76.5073 37.7495 74.2897 34.4735 72.2233C33.9191 71.8705 33.0623 71.7193 33.4151 70.7617C34.9271 69.6529 36.0359 70.8625 37.1951 71.4673C39.7655 72.8281 42.1847 74.5921 44.7047 76.1041C46.3175 77.0617 47.5271 76.9105 48.6359 75.3481C50.0471 73.3321 51.6599 71.5177 52.7183 69.0481C49.1903 66.4777 45.7631 64.6633 41.4287 67.2337C38.9087 68.6953 35.8343 69.0985 33.4151 70.7617Z" fill="#143E2E"/>
<path d="M52.3152 36.792C53.3232 36.0864 54.0792 36.288 54.7344 36.288C61.1856 36.288 67.6368 36.288 74.4912 36.288C73.584 43.4952 72.072 50.2992 70.8624 57.1536C68.544 58.7664 65.9232 59.472 63.504 60.7824C60.8832 59.5224 58.1112 58.6656 55.7424 57.0528C54.5832 50.148 53.424 43.3944 52.3152 36.792Z" fill="#8DE9C9"/>
<path d="M36.9431 49.5433C36.7919 49.0393 36.5903 48.4849 36.3887 47.8801C40.3703 44.9065 44.3519 41.8825 48.2831 38.9089C49.0895 38.3041 50.0975 37.9009 50.3495 36.7921C52.1639 39.0097 51.7103 41.8825 52.3151 44.4025C53.2727 48.3337 53.6759 52.3657 54.3815 56.7505C50.0471 55.5409 45.8639 54.4825 41.8319 53.1721C39.9167 52.5673 38.9087 50.2993 36.9431 49.5433Z" fill="#8DE9C9"/>
<path d="M86.4864 53.0208C82.2024 53.676 78.1704 55.2888 73.9872 56.2968C73.5336 56.3976 73.1304 56.6496 72.4248 56.2464C73.4832 50.0976 74.592 43.7976 75.8016 36.8928C80.892 40.7232 85.5288 44.2008 90.1152 47.628C90.0648 48.3336 90.0648 48.9384 90.0144 49.4928C89.964 49.644 89.9136 49.7448 89.8632 49.896C89.46 50.4504 88.956 50.904 88.5528 51.4584C88.4016 51.66 88.2 51.8616 87.9984 52.0632C87.696 52.3656 87.3432 52.6176 86.9904 52.8192C86.7888 52.9704 86.6376 52.9704 86.4864 53.0208Z" fill="#8DE9C9"/>
<path d="M50.4 36.7417C48.9888 36.2881 48.2832 37.4473 47.4264 38.1025C43.848 40.7737 40.3704 43.4953 36.792 46.2169C36.54 46.4185 36.1872 46.4185 35.7336 46.5697C35.1792 38.8081 34.5744 31.1977 33.9192 23.1841C36.6912 24.5449 38.3544 26.5609 40.5216 27.9721C41.1768 28.4257 41.6304 29.2321 42.6384 28.9801L42.588 28.9297C43.9992 31.4497 46.6704 32.5585 48.6864 34.3729C49.4424 35.1289 50.4 35.5825 50.4 36.7417Z" fill="#8DE9C9"/>
<path d="M90.972 46.8721C85.6296 42.8401 81.0432 39.4129 76.356 35.8345C81.8496 31.5001 87.0912 27.3673 92.9376 22.7305C92.2824 30.9961 91.6776 38.4553 90.972 46.8721Z" fill="#8DE9C9"/>
<path d="M33.4151 70.7617C33.3647 70.4593 33.2639 70.1065 33.1631 69.6025C37.0943 67.9393 41.1263 66.2761 45.5111 64.4617C48.2327 65.6209 51.2567 66.8809 54.4823 68.2417C52.5167 71.9713 49.8455 75.1465 47.3255 78.8761C43.5959 76.5577 40.0679 74.3401 36.4895 72.1729C35.5319 71.5177 34.7255 70.5097 33.4151 70.7617Z" fill="#8DE9C9"/>
<path d="M73.0296 70.7617C73.584 69.8041 72.4248 69.3505 72.4248 68.2921C75.6 67.0321 78.6744 65.1673 82.2024 64.4617L82.152 64.4113C84.8232 66.5281 88.2 67.1329 91.1736 68.6449C91.8792 68.9977 92.6856 69.3001 93.8448 69.8041C89.0064 72.8785 84.42 75.8017 79.7832 78.7753C77.8176 77.1121 76.8096 74.7937 75.2472 72.9793C74.6424 72.1225 74.592 70.5601 73.0296 70.7617Z" fill="#8DE9C9"/>
<path d="M82.2527 64.4112C82.2527 62.0424 83.7143 60.1776 84.4199 58.0608C84.9743 56.3472 86.2343 54.8856 86.4863 53.0208L86.4359 53.0712C86.8391 52.4664 87.2927 51.9624 87.8975 51.6096L87.8471 51.66C88.5527 50.9544 89.3087 50.2488 90.0143 49.4928L89.9639 49.5432C90.3167 49.5936 90.6695 49.644 91.1735 49.7448C92.2319 55.7928 93.3407 61.9416 94.4999 68.544C91.2239 67.2336 88.3511 66.0744 85.4783 64.9152C84.4199 64.512 83.4623 63.8064 82.2527 64.4112Z" fill="#8DE9C9"/>
<path d="M36.8929 49.4928C36.5905 49.9968 36.7921 50.4 37.1449 50.7024C40.5217 53.172 41.8321 57.0024 43.4449 60.6312C43.7977 61.488 44.1505 62.3448 44.6041 63.4536C40.5721 64.8648 36.9937 67.3344 32.6593 67.9392C32.5585 64.0584 34.0201 60.4296 34.3729 56.6496C34.5745 54.5832 35.2297 52.5672 35.4817 50.5008C35.6329 49.392 36.4897 49.896 36.8929 49.4928Z" fill="#8DE9C9"/>
<path d="M70.5095 59.7745C68.2919 65.0161 68.7959 70.5601 68.7959 76.0537C68.7959 81.6985 68.7959 87.3433 68.5439 92.9881C66.8807 90.7705 67.6367 88.0489 67.1831 85.6297C66.6791 83.0089 66.3767 80.3377 66.0239 77.6665C65.7215 75.0961 65.5703 72.5257 65.1671 70.0057C64.7135 67.3345 64.4615 64.7137 64.3103 61.9417C66.1751 60.8329 67.9391 59.7241 70.0559 59.2705C70.4591 59.2201 70.6103 59.3713 70.5095 59.7745Z" fill="#8DE9C9"/>
<path d="M55.3391 58.7161C57.9095 59.2201 60.0263 60.6817 62.7479 61.8409C61.4879 72.2233 60.1775 82.6561 58.9175 93.0385C57.9599 92.1313 58.1615 91.1233 58.1615 90.1657C58.1111 83.3617 58.0103 76.5073 58.1615 69.7033C58.2623 65.7217 57.1031 62.1433 55.3391 58.7161Z" fill="#8DE9C9"/>
<path d="M54.9864 60.2784C55.6416 62.1936 56.1456 63.756 56.7 65.3184C56.2968 65.9232 55.944 66.4776 55.5408 67.0824C55.1376 67.032 54.7848 67.032 54.4824 66.8808C53.3736 66.4776 52.3656 65.8224 51.2568 65.6208C45.6624 64.512 44.1504 60.0768 42.5376 54.936C46.9728 56.8512 51.0048 58.5648 54.9864 60.2784Z" fill="#8DE9C9"/>
<path d="M63.5544 67.5864C64.512 75.5496 65.52 83.5632 66.528 91.6776C64.6128 92.1816 62.6472 91.7784 60.228 92.0304C61.2864 83.664 62.244 75.6504 63.252 67.5864C63.4032 67.5864 63.504 67.5864 63.5544 67.5864Z" fill="#8DE9C9"/>
<path d="M72.1223 60.1777C76.0031 58.5145 79.9343 56.8513 84.2687 54.9865C83.4119 58.212 81.9503 60.6816 80.8919 63.3024C77.7167 64.6128 74.6423 65.9232 71.5679 67.2336C69.8543 64.8648 69.8543 64.8649 72.1223 60.1777Z" fill="#8DE9C9"/>
<path d="M73.0295 70.7113C72.8279 72.0721 73.8863 72.8281 74.4911 73.7857C75.8519 75.8521 77.3135 77.8177 78.7247 79.8337C77.2127 84.7225 75.7007 89.5105 74.1383 94.5505C73.3319 92.4337 73.5839 90.4177 73.4327 88.4521C72.9287 83.2105 72.7271 77.9185 72.4247 72.6265C72.3239 71.9209 72.3239 71.2153 73.0295 70.7113Z" fill="#8DE9C9"/>
<path d="M48.0815 79.8337C50.1983 76.8601 52.2143 73.9873 54.4823 70.7113C53.9783 78.9769 53.5247 86.7385 53.0207 95.2561C51.2567 89.7625 49.7447 84.9745 48.0815 79.8337Z" fill="#8DE9C9"/>
<path d="M54.3311 96.9697C54.7847 87.5953 55.1879 78.4729 55.6415 69.3505C55.6415 68.9473 55.8934 68.4433 56.4982 68.2417C57.0022 69.0481 56.7502 69.9553 56.7502 70.8121C56.8006 78.4729 56.7502 86.1337 56.8006 93.7441C56.8006 95.1553 57.0022 96.6673 54.3311 96.9697Z" fill="#8DE9C9"/>
<path d="M70.8119 68.2417C71.6183 77.7673 72.2231 87.2425 72.4247 96.9193C70.1567 96.8689 70.0055 95.5585 70.0559 94.0465C70.1063 88.4017 70.1063 82.8073 70.1063 77.1625C70.1063 74.2393 70.1063 71.3161 70.1063 68.4433C70.3583 68.3425 70.6103 68.2921 70.8119 68.2417Z" fill="#8DE9C9"/>
<path d="M70.9128 100.447C69.5016 100.044 69.048 101.808 67.788 101.909C65.1168 101.153 65.1168 101.153 63.7056 99.4897C65.772 99.2377 67.536 98.4313 69.048 97.1713C70.2072 97.2217 70.9128 98.1793 71.8704 98.5825C72.072 99.4897 70.6608 99.5401 70.9128 100.447Z" fill="#8DE9C9"/>
<path d="M58.1615 96.9193C59.0183 99.0361 61.3367 98.7337 63.1511 99.6409C62.0423 101.103 60.5303 101.405 59.1695 102.111C57.6071 101.052 55.9943 100.195 54.7847 98.7337C55.7927 97.8265 56.9015 97.2217 58.1615 96.9193Z" fill="#8DE9C9"/>
<path d="M65.9231 92.8872C65.3687 94.9032 64.2599 96.012 63.5039 97.3728C62.2439 96.4152 61.9415 94.8528 60.8831 93.5424C62.4959 92.4336 64.1087 93.1896 65.9231 92.8872Z" fill="#8DE9C9"/>
<path d="M66.4774 103.219C64.4614 104.429 62.5462 104.227 60.4294 103.37C63.3526 101.254 63.3526 101.254 66.4774 103.219Z" fill="#8DE9C9"/>
<path d="M67.0319 94.0465C67.4855 94.3993 67.7375 94.5001 67.8383 94.7017C68.0399 95.1049 68.1407 95.5585 68.2415 95.9113C66.7799 97.3225 66.7799 97.3225 64.6631 98.0785C65.1671 96.5161 66.1247 95.4073 67.0319 94.0465Z" fill="#8DE9C9"/>
<path d="M58.1616 96.9697C58.464 96.0121 58.6152 95.0041 59.6232 94.0465C60.48 95.1049 61.3368 96.0625 61.74 97.4737C60.3288 98.1289 59.4216 96.1129 58.1616 96.9697Z" fill="#8DE9C9"/>
<path d="M53.1719 58.0609C53.8775 58.2121 54.8855 57.6073 55.2887 58.7665L55.3391 58.7161C54.5327 58.7161 53.6759 58.9177 53.2223 58.0105L53.1719 58.0609Z" fill="#8DE9C9"/>
<path d="M71.6184 58.716C71.7192 57.8593 72.324 58.2121 73.08 57.8593C72.576 58.8673 72.072 58.716 71.6184 58.716Z" fill="#8DE9C9"/>
<path d="M53.2728 57.96C52.8696 57.9096 52.4664 57.8088 51.9624 57.7584C52.5672 57.3048 52.9704 57.4056 53.2224 58.0608L53.2728 57.96Z" fill="#8DE9C9"/>
<path d="M70.0559 59.2705C70.4591 58.7161 71.0135 58.6657 71.6687 58.7665L71.6183 58.7161C71.5679 59.4217 70.9127 59.4721 70.5095 59.7745C70.3583 59.6233 70.2071 59.4217 70.0559 59.2705Z" fill="#8DE9C9"/>
<path d="M32.7096 67.9392C32.8104 68.1912 32.6592 68.4432 32.508 68.3928C31.9536 68.04 32.4576 68.04 32.7096 67.9392Z" fill="#8DE9C9"/>
<path d="M90.0647 49.4928C90.0143 50.8536 89.2583 51.5592 87.8975 51.66C87.8975 50.2488 88.7039 49.5936 90.0647 49.4928Z" fill="#143E2E"/>
<path d="M87.8975 51.6096C87.8975 52.5672 87.3935 53.0208 86.4359 53.0712C86.2847 51.9624 86.7887 51.4584 87.8975 51.6096Z" fill="#143E2E"/>
</svg>
